<?xml version="1.0" encoding="UTF-8"?>
<svg id="Layer_2" data-name="Layer 2" xmlns="http://www.w3.org/2000/svg" xmlns:xlink="http://www.w3.org/1999/xlink" viewBox="0 0 150 150">
  <defs>
    <style>
      .cls-1 {
        fill: none;
      }

      .cls-2 {
        fill: #f91155;
      }

      .cls-2, .cls-3 {
        fill-rule: evenodd;
      }

      .cls-3 {
        fill: #fff;
      }

      .cls-4 {
        fill: #005bff;
      }

      .cls-5 {
        clip-path: url(#clippath);
      }
    </style>
    <clipPath id="clippath">
      <path class="cls-1" d="M75,0h0c41.41,0,75,33.59,75,75h0c0,41.41-33.59,75-75,75h0C33.59,150,0,116.41,0,75h0C0,33.59,33.59,0,75,0Z"/>
    </clipPath>
  </defs>
  <g id="_Слой_1" data-name="Слой 1">
    <g class="cls-5">
      <g>
        <rect class="cls-4" x="0" y="0" width="150" height="150"/>
        <polygon class="cls-2" points="73.87 75.21 71.67 66.65 86.24 56.87 103.68 58.07 106.22 66.44 185.68 151.92 61.4 189.58 73.87 75.21"/>
        <path class="cls-3" d="M15.95,100.28c-5.64,2.33-11.94-1.43-12.81-7.65-.59-4.24,1.74-8.41,5.58-10,5.64-2.33,11.94,1.43,12.81,7.65.59,4.24-1.74,8.41-5.58,10h0ZM9.44,73.8c-10.9,1.76-17.31,13.24-13.33,23.89,2.94,7.88,11.05,12.72,19.12,11.41,10.9-1.76,17.31-13.24,13.33-23.89-2.94-7.88-11.05-12.72-19.12-11.41h0Z"/>
        <path class="cls-3" d="M33.81,67.6c-2.45.66-3.77,3.44-2.57,5.88.88,1.79,2.97,2.62,4.87,2.11l11.03-2.96-11.01,27.61c-.36.91.46,1.85,1.39,1.6l26.94-7.22c1.9-.51,3.3-2.27,3.17-4.26-.18-2.72-2.72-4.46-5.17-3.81l-13.44,3.6,11-27.59c.36-.91-.46-1.87-1.41-1.61l-24.8,6.65Z"/>
        <path class="cls-3" d="M141.37,38.6c-1.74.89-2.54,2.96-2.03,4.86l3.58,13.37-26.15-11.47c-.91-.4-1.87.44-1.61,1.4l7.4,27.6c.51,1.9,2.24,3.3,4.19,3.2,2.72-.14,4.46-2.72,3.79-5.22l-3.61-13.48,26.15,11.47c.91.4,1.87-.44,1.61-1.4l-7.42-27.7c-.67-2.5-3.47-3.86-5.89-2.63Z"/>
        <path class="cls-3" d="M85.22,52.92c-13.1,3.51-21.64,14.09-19.08,23.63,2.56,9.54,15.25,14.43,28.34,10.92,13.09-3.51,21.64-14.09,19.08-23.63-2.56-9.54-15.24-14.43-28.34-10.92h0ZM87.38,60.99c9.05-2.42,17.11.63,18.28,4.98,1.17,4.35-4.29,11.03-13.34,13.45-9.05,2.42-17.11-.63-18.28-4.98-1.17-4.35,4.29-11.03,13.34-13.45h0Z"/>
      </g>
    </g>
  </g>
</svg>