<?xml version="1.0" encoding="UTF-8"?>
<svg id="Layer_2" data-name="Layer 2" xmlns="http://www.w3.org/2000/svg" viewBox="0 0 557.98 558">
  <defs>
    <style>
      .cls-1 {
        fill: #ff5326;
      }

      .cls-1, .cls-2 {
        fill-rule: evenodd;
      }

      .cls-2 {
        fill: #fd0;
      }
    </style>
  </defs>
  <g id="_Слой_1" data-name="Слой 1">
    <g>
      <path class="cls-1" d="M273.47,0h11.29c39.64.94,79.12,10.18,114.8,27.54,43.11,20.69,80.64,52.77,108.01,91.96,24.02,34.27,40.23,74,46.82,115.33,6.46,39.76,4.2,80.93-6.66,119.72-9.69,34.64-26.21,67.37-48.38,95.7-24.24,31.25-55.27,57.19-90.24,75.64-38.2,20.22-81.16,31.15-124.34,32.11h-11.28c-25.75-.62-51.45-4.57-76.09-12.14-39.23-11.89-75.66-32.73-106.03-60.25-32.62-29.67-58.32-67.07-73.67-108.45C-.44,329.22-4.68,276.19,5.19,225.92c8.15-42.17,26.33-82.34,52.52-116.37,24.91-32.56,57.07-59.54,93.48-78.4C188.81,11.47,231.06.95,273.47,0Z"/>
      <path class="cls-2" d="M235.48,38.03c3.26,1.36,6.04,3.57,8.94,5.55,33.84,22.47,67.59,45.1,101.36,67.68,4.36,3.17,9.37,5.61,13.19,9.43-.35,4.22-1.84,8.22-2.79,12.32-13.51,55.15-27.67,110.14-41.02,165.33,4.18-4.62,8-9.54,11.83-14.44,30.89-38.79,61.72-77.65,92.63-116.43,1.29-1.21,2.22-3.77,4.38-3.16,4.03,2.06,7.63,4.88,11.41,7.35,25.82,17.31,51.81,34.37,77.43,51.98-11.46,47.05-22.5,94.2-33.82,141.27-.43,1.89-.59,3.83-.76,5.76,20.25-4.51,40.46-9.16,60.68-13.82,2.96-.63,5.98-1.1,8.79-2.3-9.69,34.64-26.21,67.37-48.38,95.7-43.94,8.41-87.91,16.71-131.84,25.16-1.02.13-2.03.25-3.04.35,9.16-40.09,18.94-80.04,28.26-120.09,1.42-6.3,3.33-12.51,4.15-18.93-33.14,41.01-65.56,82.62-98.72,123.62-34.98-6.18-69.97-12.35-104.96-18.49.35-4.46,1.83-8.69,2.82-13.02,14.25-57.33,28.54-114.64,42.74-171.97-3.44,4.54-6.46,9.38-9.51,14.19-45.96,71.52-91.76,143.13-137.88,214.54-32.62-29.67-58.32-67.07-73.67-108.45,1.56-1.36,2.74-3.05,3.72-4.85C92.68,260.82,164.37,149.61,235.48,38.03Z"/>
    </g>
  </g>
</svg>